<svg width="24" height="25" viewBox="0 0 24 25" fill="none" xmlns="http://www.w3.org/2000/svg">
<path d="M17.09 3.32001C16.1703 2.56359 15.0933 2.02204 13.9377 1.73485C12.782 1.44767 11.5768 1.4221 10.41 1.66001C8.85638 1.97383 7.43099 2.74208 6.31469 3.86729C5.19838 4.99249 4.44147 6.42394 4.14 7.98001C3.91985 9.14673 3.95985 10.3477 4.25716 11.4971C4.55448 12.6466 5.10177 13.7163 5.86 14.63C6.56369 15.4241 6.96704 16.4395 7 17.5V20.5C7 21.2957 7.31607 22.0587 7.87868 22.6213C8.44129 23.1839 9.20435 23.5 10 23.5H14C14.7957 23.5 15.5587 23.1839 16.1213 22.6213C16.6839 22.0587 17 21.2957 17 20.5V17.69C17.0336 16.5192 17.4637 15.3944 18.22 14.5C19.5451 12.8608 20.1698 10.7648 19.9582 8.66763C19.7466 6.57044 18.7159 4.64149 17.09 3.30001V3.32001ZM15 20.5C15 20.7652 14.8946 21.0196 14.7071 21.2071C14.5196 21.3947 14.2652 21.5 14 21.5H10C9.73479 21.5 9.48043 21.3947 9.2929 21.2071C9.10536 21.0196 9 20.7652 9 20.5V19.5H15V20.5ZM16.67 13.26C15.6645 14.4526 15.0779 15.942 15 17.5H13V14.5C13 14.2348 12.8946 13.9804 12.7071 13.7929C12.5196 13.6054 12.2652 13.5 12 13.5C11.7348 13.5 11.4804 13.6054 11.2929 13.7929C11.1054 13.9804 11 14.2348 11 14.5V17.5H9C8.97362 15.9681 8.40695 14.4948 7.4 13.34C6.73564 12.544 6.28889 11.5894 6.10331 10.5694C5.91773 9.54928 5.99965 8.49852 6.34109 7.51954C6.68253 6.54055 7.27182 5.66675 8.05153 4.98333C8.83123 4.29992 9.77472 3.83021 10.79 3.62001C11.6626 3.44035 12.5642 3.45725 13.4294 3.66948C14.2946 3.8817 15.1017 4.28393 15.7921 4.84696C16.4824 5.40999 17.0388 6.11969 17.4207 6.92453C17.8026 7.72937 18.0005 8.60915 18 9.50001C18.0074 10.8699 17.5371 12.1995 16.67 13.26Z" fill="#FAB431"/>
</svg>
