<svg width="14" height="14" viewBox="0 0 14 14" fill="none" xmlns="http://www.w3.org/2000/svg">
<path d="M10.8542 4.88393C10.709 4.74479 10.5127 4.66669 10.308 4.66669C10.1033 4.66669 9.90699 4.74479 9.76183 4.88393L6.98063 7.52857L4.23816 4.88393C4.09301 4.74479 3.89666 4.66669 3.69199 4.66669C3.48733 4.66669 3.29097 4.74479 3.14582 4.88393C3.07321 4.95338 3.01558 5.03601 2.97625 5.12705C2.93692 5.21808 2.91667 5.31573 2.91667 5.41435C2.91667 5.51298 2.93692 5.61062 2.97625 5.70166C3.01558 5.7927 3.07321 5.87533 3.14582 5.94478L6.43059 9.11237C6.50261 9.18239 6.58829 9.23797 6.6827 9.2759C6.7771 9.31383 6.87836 9.33335 6.98063 9.33335C7.0829 9.33335 7.18416 9.31383 7.27857 9.2759C7.37297 9.23797 7.45865 9.18239 7.53067 9.11237L10.8542 5.94478C10.9268 5.87533 10.9844 5.7927 11.0238 5.70166C11.0631 5.61062 11.0833 5.51298 11.0833 5.41435C11.0833 5.31573 11.0631 5.21808 11.0238 5.12705C10.9844 5.03601 10.9268 4.95338 10.8542 4.88393Z" fill="white"/>
</svg>
