<svg width="16" height="16" viewBox="0 0 16 16" fill="none" xmlns="http://www.w3.org/2000/svg">
<path d="M12.4048 5.58159C12.2389 5.42257 12.0145 5.33331 11.7806 5.33331C11.5467 5.33331 11.3223 5.42257 11.1564 5.58159L7.97791 8.60404L4.84366 5.58159C4.67777 5.42257 4.45337 5.33331 4.21946 5.33331C3.98556 5.33331 3.76116 5.42257 3.59527 5.58159C3.51228 5.66096 3.44642 5.75539 3.40147 5.85944C3.35652 5.96348 3.33337 6.07508 3.33337 6.18779C3.33337 6.3005 3.35652 6.4121 3.40147 6.51614C3.44642 6.62018 3.51228 6.71461 3.59527 6.79399L7.34929 10.4141C7.43159 10.4941 7.52952 10.5576 7.63741 10.601C7.7453 10.6443 7.86103 10.6666 7.97791 10.6666C8.09479 10.6666 8.21051 10.6443 8.3184 10.601C8.4263 10.5576 8.52422 10.4941 8.60653 10.4141L12.4048 6.79399C12.4878 6.71461 12.5537 6.62018 12.5986 6.51614C12.6436 6.4121 12.6667 6.3005 12.6667 6.18779C12.6667 6.07508 12.6436 5.96348 12.5986 5.85944C12.5537 5.75539 12.4878 5.66096 12.4048 5.58159Z" fill="#1B2430"/>
</svg>
